<svg xmlns="http://www.w3.org/2000/svg" xmlns:xlink="http://www.w3.org/1999/xlink" version="1.1" id="Layer_1" x="0px" y="0px" style="enable-background:new 0 0 566.9 566.9;" xml:space="preserve" viewBox="165 159.6 236.9 247.8">
<style type="text/css">
	.st0{fill:#AD46FF;}
	.st1{fill:#1C1C1C;}
</style>
<g>
	<rect x="165" y="159.6" class="st0" width="23.3" height="185.2"/>
	<polygon class="st0" points="205.5,159.6 205.5,188.3 265.1,188.3 265.1,244.8 283.5,244.8 301.8,244.8 301.8,188.3 361.4,188.3    361.4,159.6 283.5,159.6  "/>
	<polygon class="st0" points="264.6,320 264.6,374.6 283.5,407.4 302.3,374.6 302.3,320 283.5,320  "/>
	<rect x="378.6" y="159.6" class="st0" width="23.3" height="185.2"/>
	<polygon class="st0" points="320.5,265.2 283.5,265.2 246.5,265.2 246.5,200.6 205.5,200.6 205.5,348 246.5,366.7 246.5,299.9    283.5,299.9 320.5,299.9 320.5,366.7 361.4,348 361.4,200.6 320.5,200.6  "/>
</g>
</svg>